<?xml version="1.0" encoding="UTF-8"?>
<!-- Generated by jsxcad -->
<!DOCTYPE svg PUBLIC "-//W3C//DTD SVG 1.1 Tiny//EN" "http://www.w3.org/Graphics/SVG/1.1/DTD/svg11-tiny.dtd">
<svg viewBox="-250 -250 500 500" width="500" height="500" xmlns="http://www.w3.org/2000/svg"><path d="M-6.832951736719024,238.32630051028494L-214.52944358391414,-3.8791185802596866L-58.167904476843155,213.9004448837972z" style="fill:rgb(57,36,182)"/><path d="M204.33622605320994,54.89583919923312L117.36476373074414,-145.34414351569885L206.75899451761302,108.06423516868678z" style="fill:rgb(246,148,167)"/><path d="M-203.77789949860068,-143.81442546926462L-214.52944358391414,-3.8791185802596866L-153.74386050483648,-189.35111920605792zM-240.3059952467223,-43.39270660823302L-203.77789949860068,-143.81442546926462L-234.95558315122184,-92.9497148068144zM-153.74386050483648,-189.35111920605792L-157.2584408796464,15.771249435307558L-91.95899777007621,-224.6731552777187z" style="fill:rgb(83,212,212)"/><path d="M206.75899451761302,108.06423516868678L79.10406388658946,-83.98637161760686L179.9801151692459,164.48142857399918z" style="fill:rgb(231,109,199)"/><path d="M-76.82105036808684,7.947002078382136L-6.832951736719024,238.32630051028494L59.707854514707265,238.19591740320203z" style="fill:rgb(102,32,209)"/><path d="M-91.95899777007621,-224.6731552777187L-76.82105036808684,7.947002078382136L-25.5159459509475,-245.94763306218965z" style="fill:rgb(83,212,212)"/><path d="M117.36476373074414,-145.34414351569885L204.33622605320994,54.89583919923312L119.18872511436021,-198.3587759806509z" style="fill:rgb(246,148,167)"/><path d="M179.9801151692459,164.48142857399918L9.099503125542503,-28.10464294292571L127.22519172465871,211.67148165067053z" style="fill:rgb(197,72,218)"/><path d="M9.099503125542503,-28.10464294292571L59.707854514707265,238.19591740320203L127.22519172465871,211.67148165067053z" style="fill:rgb(152,45,222)"/><path d="M-203.77789949860068,-143.81442546926462L-240.3059952467223,-43.39270660823302L-214.52944358391414,-3.8791185802596866zM-25.5159459509475,-245.94763306218965L9.099503125542503,-28.10464294292571L37.934680326351696,-249.95972468022563zM37.934680326351696,-249.95972468022563L79.10406388658946,-83.98637161760686L89.52602471591385,-234.2887620117371z" style="fill:rgb(83,212,212)"/><path d="M-214.52944358391414,-3.8791185802596866L-6.832951736719024,238.32630051028494L-157.2584408796464,15.771249435307558z" style="fill:rgb(57,36,182)"/><path d="M-153.74386050483648,-189.35111920605792L-214.52944358391414,-3.8791185802596866L-157.2584408796464,15.771249435307558z" style="fill:rgb(83,212,212)"/><path d="M79.10406388658946,-83.98637161760686L206.75899451761302,108.06423516868678L117.36476373074414,-145.34414351569885z" style="fill:rgb(231,109,199)"/><path d="M89.52602471591385,-234.2887620117371L117.36476373074414,-145.34414351569885L119.18872511436021,-198.3587759806509z" style="fill:rgb(83,212,212)"/><path d="M-6.832951736719024,238.32630051028494L-76.82105036808684,7.947002078382136L-157.2584408796464,15.771249435307558z" style="fill:rgb(102,32,209)"/><path d="M-91.95899777007621,-224.6731552777187L-157.2584408796464,15.771249435307558L-76.82105036808684,7.947002078382136z" style="fill:rgb(83,212,212)"/><path d="M9.099503125542503,-28.10464294292571L179.9801151692459,164.48142857399918L79.10406388658946,-83.98637161760686z" style="fill:rgb(197,72,218)"/><path d="M89.52602471591385,-234.2887620117371L79.10406388658946,-83.98637161760686L117.36476373074414,-145.34414351569885zM-25.5159459509475,-245.94763306218965L-76.82105036808684,7.947002078382136L9.099503125542503,-28.10464294292571z" style="fill:rgb(83,212,212)"/><path d="M59.707854514707265,238.19591740320203L9.099503125542503,-28.10464294292571L-76.82105036808684,7.947002078382136z" style="fill:rgb(152,45,222)"/><path d="M37.934680326351696,-249.95972468022563L9.099503125542503,-28.10464294292571L79.10406388658946,-83.98637161760686z" style="fill:rgb(83,212,212)"/></svg>
